#!OML:ASF X:\für Bonn\!DataBase\2005_08_12_Daniel\c3d\Daniel.ASF
:FULLY-SPECIFIED
:DEGREES
79
root -0.0426271 16.8255 1.65196 180.151 -8.12043 -179.726
lowerback 59.4131 -0.243354 11.4102
upperback 12.7338 -1.19664 -1.10135
thorax -6.71961 -3.08355 -5.33805
lowerneck 4.9829 -4.51284 -3.11279
upperneck 6.89452 -6.67292 4.79873
head 1.61087 -3.43992 2.04157
rclavicle 1.27222e-014 -4.65156e-014
rhumerus 191.247 -186.613 -262.28
rradius 30.2681
rwrist -19.0465
rhand -24.6148 19.6101
rfingers 7.12502
rthumb 1.8836 -10.3614
lclavicle 1.27222e-014 -4.65156e-014
lhumerus -20.2512 2.47522 91.3606
lradius 54.3965
lwrist -3.81385
lhand -13.3987 -8.98339
lfingers 7.12502
lthumb 12.7089 20.6099
rfemur -31.4547 -7.20176 18.0984
rtibia 47.38
rfoot -17.4268 -2.85776
rtoes -8.08928
lfemur -36.4796 -5.54486 -16.867
ltibia 53.2775
lfoot -16.3138 -12.1738
ltoes -7.39238
80
root -0.0337626 16.7909 1.67617 180.558 -8.20391 -179.91
lowerback 60.2556 -0.433069 11.7367
upperback 12.6764 -1.21966 -1.14264
thorax -6.78794 -3.11096 -5.4796
lowerneck 4.84942 -4.66795 -3.14289
upperneck 6.82912 -6.86763 4.8702
head 1.626 -3.52948 2.06621
rclavicle -2.8625e-014 2.38542e-014
rhumerus 192.479 -185.947 -261.798
rradius 29.2416
rwrist -18.5197
rhand -24.6184 19.383
rfingers 7.12502
rthumb 1.88012 -10.5885
lclavicle -2.8625e-014 2.38542e-014
lhumerus -20.1208 2.22529 91.3625
lradius 54.1226
lwrist -3.56617
lhand -13.4365 -9.15552
lfingers 7.12502
lthumb 12.6724 20.44
rfemur -32.4762 -7.20928 17.9643
rtibia 48.2089
rfoot -17.6187 -2.91423
rtoes -8.03893
lfemur -37.3722 -5.39517 -17.0755
ltibia 53.8403
lfoot -16.3151 -12.1296
ltoes -7.2039
81
root -0.0257955 16.7541 1.69948 180.941 -8.28844 -180.076
lowerback 61.0878 -0.644053 12.097
upperback 12.6187 -1.23955 -1.19477
thorax -6.84639 -3.13387 -5.6484
lowerneck 4.6891 -4.84516 -3.09072
upperneck 6.75722 -7.08389 4.88013
head 1.63869 -3.62775 2.05511
rclavicle -3.10104e-014 1.31198e-014
rhumerus 193.678 -185.193 -261.356
rradius 28.2139
rwrist -17.9439
rhand -24.5485 19.131
rfingers 7.12502
rthumb 1.94763 -10.8398
lclavicle -3.10104e-014 1.31198e-014
lhumerus -19.9846 1.95564 91.3684
lradius 53.8458
lwrist -3.31379
lhand -13.4339 -9.26079
lfingers 7.12502
lthumb 12.6749 20.3346
rfemur -33.4695 -7.23858 17.8468
rtibia 49.0508
rfoot -17.8179 -2.94331
rtoes -8.03858
lfemur -38.2556 -5.20105 -17.2973
ltibia 54.4287
lfoot -16.3831 -12.0838
ltoes -7.28494
82
root -0.0180309 16.7178 1.72041 181.324 -8.36029 -180.242
lowerback 61.8691 -0.860633 12.4574
upperback 12.5799 -1.26722 -1.2609
thorax -6.87672 -3.15654 -5.83134
lowerneck 4.60047 -4.9979 -3.08385
upperneck 6.62023 -7.27086 4.98095
head 1.62275 -3.71274 2.08442
rclavicle -1.82882e-014 5.4467e-014
rhumerus 194.868 -184.419 -260.958
rradius 27.2335
rwrist -17.3691
rhand -24.5179 18.8035
rfingers 7.12502
rthumb 1.97717 -11.167
lclavicle -1.82882e-014 5.4467e-014
lhumerus -19.827 1.65525 91.353
lradius 53.5774
lwrist -2.98332
lhand -13.4472 -9.34124
lfingers 7.12502
lthumb 12.6621 20.2549
rfemur -34.471 -7.27644 17.7371
rtibia 49.9059
rfoot -18.0366 -2.97674
rtoes -8.16016
lfemur -39.1287 -4.99668 -17.5306
ltibia 55.0264
lfoot -16.4565 -12.0132
ltoes -7.30479
